<?xml version="1.0" encoding="utf-8"?>
<!-- Generator: Adobe Illustrator 15.0.2, SVG Export Plug-In . SVG Version: 6.00 Build 0)  -->
<!DOCTYPE svg PUBLIC "-//W3C//DTD SVG 1.1//EN" "http://www.w3.org/Graphics/SVG/1.1/DTD/svg11.dtd">
<svg version="1.1" id="Calque_1" xmlns="http://www.w3.org/2000/svg" xmlns:xlink="http://www.w3.org/1999/xlink" x="0px" y="0px"
	 width="38.966px" height="14.336px" viewBox="26.027 58.852 38.966 14.336" enable-background="new 26.027 58.852 38.966 14.336"
	 xml:space="preserve">
<g>
	<path fill="#FFFFFF" d="M64.993,58.852v3.202c0,2.194-0.516,3.808-1.55,4.838c-0.619,0.59-1.293,1.009-2.023,1.26
		c-0.729,0.25-1.64,0.375-2.729,0.375h-7.564c-1.269,0-2.177,0.272-2.721,0.817c-0.575,0.544-0.864,1.266-0.864,2.165v1.679h-4.063
		v-1.679c0-0.868-0.288-1.59-0.862-2.165c-0.546-0.545-1.454-0.817-2.72-0.817h-7.565c-1.119,0-2.049-0.13-2.787-0.387
		c-0.738-0.259-1.394-0.674-1.969-1.248c-1.032-1.03-1.549-2.643-1.549-4.837v-3.202h4.153v1.745c0,1.384,0.206,2.261,0.618,2.628
		c0.458,0.457,1.422,0.685,2.893,0.685h7.29c1.325,0,2.308,0.269,2.949,0.807c0.641,0.536,1.167,1.261,1.58,2.175
		c0.382-0.898,0.897-1.619,1.545-2.165c0.647-0.544,1.639-0.816,2.981-0.816h7.267c1.488,0,2.459-0.228,2.916-0.685
		c0.412-0.367,0.619-1.245,0.619-2.628v-1.745L64.993,58.852L64.993,58.852z"/>
</g>
</svg>
