<?xml version="1.0" encoding="utf-8"?>
<!-- Generator: Adobe Illustrator 15.0.2, SVG Export Plug-In . SVG Version: 6.00 Build 0)  -->
<!DOCTYPE svg PUBLIC "-//W3C//DTD SVG 1.1//EN" "http://www.w3.org/Graphics/SVG/1.1/DTD/svg11.dtd">
<svg version="1.1" id="Calque_1" xmlns="http://www.w3.org/2000/svg" xmlns:xlink="http://www.w3.org/1999/xlink" x="0px" y="0px"
	 width="100.995px" height="106.918px" viewBox="73 137.154 100.995 106.918" enable-background="new 73 137.154 100.995 106.918"
	 xml:space="preserve">
<g>
	<g>
		<polygon fill="#C4473A" points="83.437,218.617 75.944,157.144 123.497,140.027 171.051,157.144 163.558,218.617 123.497,240.977 
					"/>
		<g>
			<path fill="#B3B3B3" d="M123.497,142.9l44.61,16.058l-7.065,57.969l-37.544,20.955l-37.543-20.955l-7.065-57.969L123.497,142.9
				 M123.497,137.154l-1.832,0.659l-44.608,16.058L73,155.331l0.521,4.281l7.066,57.968l0.332,2.728l2.4,1.339l37.542,20.955
				l2.634,1.471l2.636-1.471l37.543-20.954l2.399-1.34l0.333-2.728l7.065-57.968l0.521-4.281l-4.058-1.46l-44.609-16.058
				L123.497,137.154L123.497,137.154z"/>
		</g>
	</g>
	<g>
		<polyline fill="#9E3D34" points="123.497,142.9 168.107,158.958 161.042,216.927 123.497,237.882 		"/>
	</g>
	<path fill="#FFFFFF" d="M156.48,178.565v5.408c0,3.707-0.871,6.431-2.618,8.171c-1.045,0.996-2.184,1.706-3.417,2.13
		c-1.232,0.421-2.769,0.632-4.61,0.632h-12.777c-2.143,0-3.675,0.46-4.595,1.381c-0.972,0.919-1.46,2.137-1.46,3.657v2.835h-6.863
		v-2.835c0-1.468-0.486-2.686-1.456-3.657c-0.922-0.921-2.455-1.381-4.594-1.381h-12.778c-1.89,0-3.461-0.218-4.707-0.653
		c-1.247-0.436-2.353-1.138-3.325-2.108c-1.744-1.74-2.616-4.464-2.616-8.171v-5.408h7.015v2.947c0,2.338,0.347,3.82,1.044,4.44
		c0.773,0.771,2.402,1.157,4.887,1.157h12.314c2.237,0,3.897,0.453,4.981,1.36c1.083,0.907,1.971,2.132,2.669,3.674
		c0.644-1.516,1.515-2.734,2.61-3.656c1.093-0.92,2.769-1.378,5.036-1.378h12.273c2.514,0,4.155-0.386,4.927-1.157
		c0.695-0.62,1.044-2.103,1.044-4.44v-2.947H156.48L156.48,178.565z"/>
</g>
</svg>
